<svg version="1.1" xmlns="http://www.w3.org/2000/svg" width="220" height="110" viewBox="0 0 220 110">
  <g stroke="#000000" stroke-width="2" stroke-miterlimit="10">
    <!-- Rear Grip (Shifted up another 3px to y="56.5", layered behind stock) -->
    <rect x="37" y="56.5" width="16" height="22" rx="3" fill="#3b4252" />

    <!-- Stock / Rear Power Cell (Dark Carbon) -->
    <path fill="#1a1d24" d="M 12 38 L 45 32 L 75 32 L 68 58 L 42 58 L 28 68 L 12 52 Z" />
    
    <!-- Angled Stock Accent Plate (Steel) -->
    <path fill="#4c566a" d="M 20 40 L 40 36 L 55 56 L 30 56 Z" />

    <!-- Upper Chassis & Heat Sink Vents (Gunmetal Gray) -->
    <path fill="#2e3440" d="M 70 24 L 140 24 L 145 46 L 68 56 Z" />
    <!-- Vent Slots -->
    <line x1="85" y1="28" x2="80" y2="40" stroke="#1a1d24" stroke-width="2.5" />
    <line x1="97" y1="28" x2="92" y2="40" stroke="#1a1d24" stroke-width="2.5" />
    <line x1="109" y1="28" x2="104" y2="40" stroke="#1a1d24" stroke-width="2.5" />

    <!-- Exposed Beam Chamber Rail (Gunmetal) -->
    <path fill="#2e3440" d="M 140 28 L 190 28 L 190 40 L 140 42 Z" />

    <!-- Main Beam Core (Deep Cyan Plasmid) -->
    <path fill="#00adb5" d="M 75 35 L 185 35 L 185 41 L 75 41 Z" />

    <!-- Hyper-Focused Inner Beam Light (Neon Core Glow) -->
    <path fill="#00fff5" d="M 90 36.5 L 195 36.5 L 195 39.5 L 90 39.5 Z" stroke="none" />

    <!-- Magnetic Containment Rings -->
    <rect x="145" y="24" width="6" height="22" rx="1.5" fill="#4c566a" />
    <rect x="165" y="24" width="6" height="22" rx="1.5" fill="#4c566a" />

    <!-- Forward Slanted Power Grip -->
    <path fill="#3b4252" d="M 110 47 L 130 47 L 122 65 L 105 65 Z" />

    <!-- Beam Focusing Lens & Emitter Assembly -->
    <path fill="#d8dee9" d="M 190 26 L 204 22 L 204 46 L 190 42 Z" />

    <!-- Overcharged Thermal Tip -->
    <path fill="#ff5722" d="M 204 28 L 214 30 L 214 38 L 204 40 Z" />
    
    <!-- Optic Sight Mount & Lens -->
    <path fill="#d8dee9" d="M 80 17 L 125 17 L 130 24 L 75 24 Z" />
    <circle cx="122" cy="20.5" r="3" fill="#00fff5" />
  </g>
</svg>
